<svg width="1070" height="951" viewBox="0 0 1070 951" fill="none" xmlns="http://www.w3.org/2000/svg">
<rect width="1070" height="951" fill="white"/>
<path d="M91.835 376.632C91.835 329.338 112.388 292.21 153.494 265.248C194.6 238.286 241.894 224.805 295.376 224.805C363.886 224.805 423.998 244.474 475.712 283.812C501.348 303.702 521.238 330.222 535.382 363.372C549.526 396.08 556.598 432.324 556.598 472.104C556.598 550.338 534.277 613.986 489.635 663.048C443.225 712.994 385.102 737.967 315.266 737.967C299.796 737.967 283.442 735.978 266.204 732C248.966 728.022 235.264 722.718 225.098 716.088C208.744 728.464 187.749 734.652 162.113 734.652C136.919 734.652 117.25 727.58 103.106 713.436C88.962 699.292 81.89 681.17 81.89 659.07C81.89 606.914 121.449 562.493 200.567 525.807C202.777 507.243 205.871 482.27 209.849 450.888C214.269 419.064 217.584 393.428 219.794 373.98C222.446 354.532 224.214 341.714 225.098 335.526C243.22 324.034 264.215 318.288 288.083 318.288C299.133 318.288 309.741 319.393 319.907 321.603L278.138 604.704C274.16 629.898 268.635 650.893 261.563 667.689C275.265 671.225 286.315 672.993 294.713 672.993C345.543 672.993 384.881 653.766 412.727 615.312C441.457 575.09 455.822 526.47 455.822 469.452C455.822 396.522 429.523 344.145 376.925 312.321C347.753 294.641 315.708 285.801 280.79 285.801C236.148 285.801 200.788 297.956 174.71 322.266C159.682 335.968 152.168 352.543 152.168 371.991C152.168 382.157 155.262 391.881 161.45 401.163C167.638 410.003 178.467 415.086 193.937 416.412L187.307 459.507C155.041 457.739 130.952 448.899 115.04 432.987C99.57 416.633 91.835 397.848 91.835 376.632ZM130.952 650.451C130.952 666.363 138.466 674.319 153.494 674.319C159.682 674.319 166.091 670.341 172.721 662.385C179.793 653.987 184.655 640.948 187.307 623.268L193.274 582.162C151.726 605.588 130.952 628.351 130.952 650.451ZM567.962 370.665C567.962 328.233 586.747 293.757 624.317 267.237C661.887 240.717 712.054 227.457 774.818 227.457C812.388 227.457 845.317 231.877 873.605 240.717C901.893 249.115 923.551 260.828 938.579 275.856C968.635 305.47 983.663 339.504 983.663 377.958C983.663 416.412 968.193 448.678 937.253 474.756C906.755 500.392 867.638 513.21 819.902 513.21C814.598 513.21 806.642 512.768 796.034 511.884L802.001 463.485C860.787 463.485 890.18 435.86 890.18 380.61C890.18 354.974 879.351 333.316 857.693 315.636C835.151 297.072 801.559 287.79 756.917 287.79C712.275 287.79 676.915 299.282 650.837 322.266C635.367 335.526 627.632 349.891 627.632 365.361C627.632 394.533 645.091 411.108 680.009 415.086L672.053 464.148C641.555 462.822 616.582 453.098 597.134 434.976C577.686 416.854 567.962 395.417 567.962 370.665ZM801.338 322.266L772.166 511.884C828.3 538.846 856.367 578.626 856.367 631.224C856.367 669.678 846.201 696.861 825.869 712.773C805.979 728.243 781.89 735.978 753.602 735.978C725.314 735.978 703.214 728.685 687.302 714.099C671.39 699.513 663.434 679.844 663.434 655.092C663.434 649.346 663.655 644.926 664.097 641.832L703.877 334.863C726.861 323.813 746.309 318.288 762.221 318.288C778.133 318.288 791.172 319.614 801.338 322.266ZM772.829 675.645C783.437 675.645 792.498 671.888 800.012 664.374C807.968 656.86 811.946 644.263 811.946 626.583C811.946 595.201 796.918 570.449 766.862 552.327C759.79 604.041 756.254 635.202 756.254 645.81C756.254 655.976 757.801 663.49 760.895 668.352C764.431 673.214 768.409 675.645 772.829 675.645Z" fill="#DC2626"/>
</svg>
